<svg viewBox="0 0 77 105" fill="none" xmlns="http://www.w3.org/2000/svg">
<path d="M73.5002 9.4L67.7002 8.4L68.9002 1.8C69.0002 0.999996 69.8002 0.399996 70.7002 0.599996L73.5002 0.999996C74.3002 1.1 74.9002 1.9 74.7002 2.8L73.5002 9.4Z" fill="white" stroke="#333333" stroke-miterlimit="10" stroke-linecap="round" stroke-linejoin="round"/>
<path d="M62.2 86.4L51.5 84.5L65.4 7.29999C65.5 6.49999 66.3 5.99999 67.1 6.09999L74.9 7.49999C75.7 7.59999 76.2 8.39999 76.1 9.19999L62.2 86.4Z" fill="white" stroke="#333333" stroke-miterlimit="10" stroke-linecap="round" stroke-linejoin="round"/>
<path d="M62.2002 7.59999L56.7002 38.1" stroke="#333333" stroke-miterlimit="10" stroke-linecap="round" stroke-linejoin="round"/>
<path d="M64.7998 10.4L61.7998 9.8" stroke="#333333" stroke-miterlimit="10" stroke-linecap="round" stroke-linejoin="round"/>
<path d="M55.5996 92.3L62.1996 86.4L51.5996 84.5L55.5996 92.3Z" fill="white" stroke="#333333" stroke-miterlimit="10" stroke-linecap="round" stroke-linejoin="round"/>
<path d="M55.6002 92.3L55.2002 95" stroke="#333333" stroke-miterlimit="10" stroke-linecap="round" stroke-linejoin="round"/>
<path d="M54.4 95C52.8 94.3 50.5 93.6 49.5 94C48.2 94.6 50.3 96.8 49.1 97.3C47.4 98 42.1 94.5 40 95.3C37.7 96.1 41.2 101.2 39.8 101.5C37.9 102 30.5 93.7 27.8 94.2C25.3 94.7 30.2 102.3 25.8 104.1C22.4 105.5 10.5 101 1.5 101" stroke="#333333" stroke-miterlimit="10" stroke-linecap="round" stroke-linejoin="round"/>
</svg>
